<?xml version="1.0" encoding="utf-8"?>
<!-- Generator: Adobe Illustrator 21.0.0, SVG Export Plug-In . SVG Version: 6.00 Build 0)  -->
<svg version="1.1" id="Ivanti_Logo" xmlns="http://www.w3.org/2000/svg" xmlns:xlink="http://www.w3.org/1999/xlink" x="0px"
	 y="0px" viewBox="0 0 518 238.6" style="enable-background:new 0 0 518 238.6;" xml:space="preserve">
<style type="text/css">
	.st0{fill:#D92D27;}
</style>
<g>
	<g>
		<g>
			<g>
				<g>
					<g>
						<path d="M106.6,107.4l19.4,58.3l19.7-58.3H170l-30.9,85.8h-27.9l-31.4-85.8H106.6z"/>
					</g>
					<g>
						<path d="M228.8,193.2c-0.9-5.3-0.9-9.2-0.9-11.7c-9.5,13.8-20.9,13.8-25.7,13.8c-12.4,0-18-3.6-21.4-6.8
							c-5.1-5.1-7.5-12.1-7.5-18.9c0-6.8,2.4-19.4,18.2-26.7c10.5-4.8,25.7-4.8,34-4.8c0-5.6-0.2-8.3-1.2-11.4
							c-2.2-6.3-8.8-7.1-11.2-7.1c-3.6,0-7.3,1.5-9.5,4.8c-1.9,2.9-1.9,5.6-1.9,7.6h-24.6c0.2-4.6,0.7-13.8,9.7-20.2
							c7.8-5.6,17.8-7,26-7c7.1,0,22.1,1.2,30.6,11c5.8,7,5.9,17.2,5.9,21.1l0.2,34.5c0,7.3,0.5,14.6,2,21.8H228.8z M197.9,166.7
							c0,5.8,3.9,12.2,12.2,12.2c4.6,0,8.3-2.2,10.7-4.9c4.4-5.4,4.8-12.1,4.8-21.2C209.5,151.4,197.9,156.5,197.9,166.7z"/>
					</g>
					<g>
						<path d="M265,122.7c0-0.3,0-9.7-0.5-15.6h24.1l0.7,12.9c2.4-3.9,9.2-15,27.9-15c16.8,0,24,10.2,26.2,16.1
							c1.9,5.3,2.4,9.7,2.4,25.7v46.4H320v-53.4c0-3.6,0-6.6-1.4-9.3c-1.9-3.7-5.8-7.3-12.2-7.3c-5.4,0-10.4,2.5-13.1,6.6
							c-1.5,2.2-3.1,6.5-3.1,13.1v50.3H265V122.7z"/>
					</g>
				</g>
				<g>
					<g>
						<path d="M373.1,92.4v15.5h-16.5v16.7h16.5v47.1c0,7.1,0,23.1,25.3,23.1c4.1,0,11.4-0.5,19.5-2.7v-16.5
							c-3.1,0.3-4.8,0.5-8.5,0.5c-11.2,0-11.2-4.9-11.4-12.7v-38.7h20.4v-16.7h-20.4V85.6L373.1,92.4z"/>
					</g>
				</g>
				<g>
					<path d="M42.5,107.2h25.2v86H42.5V107.2z"/>
				</g>
			</g>
		</g>
		<g>
			<g>
				<path d="M433.6,107.2h25.2v86h-25.2V107.2z"/>
			</g>
		</g>
	</g>
	<g>
		<polygon class="st0" points="458.7,60.1 458.7,85.2 475.5,85.2 475.5,43.3 433.6,43.3 433.6,60.1 		"/>
		<rect x="433.6" y="68.5" class="st0" width="16.8" height="16.8"/>
	</g>
	<rect x="42.5" y="60.1" class="st0" width="25.1" height="25.1"/>
</g>
</svg>
